<?xml version="1.0" standalone="no"?>
<!DOCTYPE svg PUBLIC "-//W3C//DTD SVG 20010904//EN"
 "http://www.w3.org/TR/2001/REC-SVG-20010904/DTD/svg10.dtd">
<svg version="1.0" xmlns="http://www.w3.org/2000/svg"
 width="500.000000pt" height="500.000000pt" viewBox="0 0 500.000000 500.000000"
 preserveAspectRatio="xMidYMid meet">

<g transform="translate(0.000000,500.000000) scale(0.100000,-0.100000)"
fill="#000000" stroke="none">
<path d="M1010 3820 c7 -14 168 -297 358 -630 189 -333 385 -676 434 -762 49
-87 92 -158 94 -158 3 0 3 3 1 8 -73 133 -883 1550 -890 1557 -5 6 -4 -1 3
-15z"/>
<path d="M3704 3343 c-309 -544 -291 -512 -277 -498 6 6 130 219 275 475 296
519 290 510 284 510 -2 0 -129 -219 -282 -487z"/>
<path d="M682 3748 c13 -18 95 -131 182 -250 86 -120 160 -218 163 -218 3 0 1
6 -4 13 -6 6 -88 119 -182 250 -95 130 -174 237 -178 237 -3 0 6 -15 19 -32z"/>
<path d="M4267 3698 c-14 -18 -143 -199 -287 -403 -145 -203 -267 -376 -273
-382 -5 -7 -7 -13 -3 -13 3 0 128 172 277 383 150 210 283 397 297 415 13 17
22 32 19 32 -3 0 -17 -15 -30 -32z"/>
<path d="M1050 3240 c12 -16 24 -30 26 -30 3 0 -4 14 -16 30 -12 17 -24 30
-26 30 -3 0 4 -13 16 -30z"/>
<path d="M1116 3150 c77 -110 145 -200 150 -200 6 0 -153 220 -174 240 -8 8 2
-10 24 -40z"/>
<path d="M4805 3115 c-27 -7 -41 -13 -30 -13 11 0 43 6 70 13 28 7 41 13 30
13 -11 0 -42 -6 -70 -13z"/>
<path d="M4665 3085 c-27 -7 -41 -13 -30 -13 11 0 43 6 70 13 28 7 41 13 30
13 -11 0 -42 -6 -70 -13z"/>
<path d="M415 3055 c28 -7 59 -13 70 -13 11 0 -2 6 -30 13 -27 7 -59 13 -70
13 -11 0 3 -6 30 -13z"/>
<path d="M4490 3049 c-98 -22 -123 -31 -65 -23 56 8 194 42 170 42 -11 0 -58
-9 -105 -19z"/>
<path d="M518 3033 c6 -2 18 -2 25 0 6 3 1 5 -13 5 -14 0 -19 -2 -12 -5z"/>
<path d="M610 3015 c30 -8 73 -16 95 -19 31 -4 27 -2 -15 9 -30 8 -73 16 -95
19 -31 4 -27 2 15 -9z"/>
<path d="M4295 3005 c-27 -7 -41 -13 -30 -13 11 0 43 6 70 13 28 7 41 13 30
13 -11 0 -42 -6 -70 -13z"/>
<path d="M758 2983 c6 -2 18 -2 25 0 6 3 1 5 -13 5 -14 0 -19 -2 -12 -5z"/>
<path d="M4120 2969 c-98 -22 -123 -31 -65 -23 56 8 194 42 170 42 -11 0 -58
-9 -105 -19z"/>
<path d="M820 2970 c14 -4 36 -8 50 -8 22 0 22 1 -5 8 -16 4 -39 8 -50 8 -16
0 -15 -2 5 -8z"/>
<path d="M908 2953 c7 -3 16 -2 19 1 4 3 -2 6 -13 5 -11 0 -14 -3 -6 -6z"/>
<path d="M958 2943 c7 -3 16 -2 19 1 4 3 -2 6 -13 5 -11 0 -14 -3 -6 -6z"/>
<path d="M998 2933 c6 -2 18 -2 25 0 6 3 1 5 -13 5 -14 0 -19 -2 -12 -5z"/>
<path d="M3925 2925 c-27 -7 -41 -13 -30 -13 11 0 43 6 70 13 28 7 41 13 30
13 -11 0 -42 -6 -70 -13z"/>
<path d="M1041 2926 c8 -7 212 -46 217 -41 3 3 3 5 0 5 -3 0 -50 9 -103 20
-97 20 -122 23 -114 16z"/>
<path d="M3810 2900 c-20 -6 -21 -8 -5 -8 11 0 31 4 45 8 20 6 21 8 5 8 -11 0
-31 -4 -45 -8z"/>
<path d="M3758 2883 c7 -3 16 -2 19 1 4 3 -2 6 -13 5 -11 0 -14 -3 -6 -6z"/>
<path d="M3195 2448 c-256 -449 -227 -398 -221 -398 3 0 356 614 443 773 2 4
2 7 0 7 -2 0 -102 -172 -222 -382z"/>
<path d="M1910 2240 c31 -61 222 -390 226 -390 3 0 3 3 1 8 -3 4 -53 93 -112
197 -94 165 -154 262 -115 185z"/>
<path d="M2911 1950 c-48 -84 -73 -141 -33 -75 40 65 93 165 89 165 -3 0 -28
-40 -56 -90z"/>
<path d="M2150 1820 c6 -11 13 -20 16 -20 2 0 0 9 -6 20 -6 11 -13 20 -16 20
-2 0 0 -9 6 -20z"/>
<path d="M2699 1578 c-72 -128 -134 -236 -136 -240 -2 -5 -2 -8 1 -8 3 0 55
89 117 198 61 108 123 216 136 240 14 23 22 42 20 42 -3 0 -65 -105 -138 -232z"/>
<path d="M2191 1748 c35 -68 152 -268 156 -268 3 0 -6 19 -20 43 -13 23 -50
88 -82 145 -31 56 -59 102 -61 102 -3 0 1 -10 7 -22z"/>
<path d="M2353 1463 c56 -102 120 -213 124 -213 2 0 2 3 0 8 -56 101 -120 212
-124 212 -2 0 -2 -3 0 -7z"/>
<path d="M2535 1290 c-9 -16 -13 -30 -11 -30 3 0 12 14 21 30 9 17 13 30 11
30 -3 0 -12 -13 -21 -30z"/>
<path d="M2487 1229 c7 -7 15 -10 18 -7 3 3 -2 9 -12 12 -14 6 -15 5 -6 -5z"/>
</g>
</svg>
